<svg width="166" height="30" viewBox="0 0 166 30" fill="none" xmlns="http://www.w3.org/2000/svg">
<path d="M14.8125 25.9336V29H3.01562V25.9336H14.8125ZM3.66016 0.5625V29H0.0664062V0.5625H3.66016ZM36.2969 12.3203V17.2617C36.2969 19.2669 36.0755 21.0312 35.6328 22.5547C35.2031 24.0651 34.5716 25.3281 33.7383 26.3438C32.9049 27.3594 31.9023 28.1211 30.7305 28.6289C29.5586 29.1367 28.237 29.3906 26.7656 29.3906C25.3464 29.3906 24.0508 29.1367 22.8789 28.6289C21.707 28.1211 20.6979 27.3594 19.8516 26.3438C19.0052 25.3281 18.3477 24.0651 17.8789 22.5547C17.4232 21.0312 17.1953 19.2669 17.1953 17.2617V12.3203C17.1953 10.3151 17.4232 8.55729 17.8789 7.04688C18.3346 5.52344 18.9857 4.25391 19.832 3.23828C20.6784 2.22266 21.6875 1.46094 22.8594 0.953125C24.0312 0.432292 25.3268 0.171875 26.7461 0.171875C28.2174 0.171875 29.5391 0.432292 30.7109 0.953125C31.8958 1.46094 32.8984 2.22266 33.7188 3.23828C34.5521 4.25391 35.1901 5.52344 35.6328 7.04688C36.0755 8.55729 36.2969 10.3151 36.2969 12.3203ZM32.7422 17.2617V12.2812C32.7422 10.7188 32.612 9.3776 32.3516 8.25781C32.0911 7.125 31.707 6.20052 31.1992 5.48438C30.6914 4.76823 30.0664 4.24089 29.3242 3.90234C28.582 3.55078 27.7227 3.375 26.7461 3.375C25.8216 3.375 24.9883 3.55078 24.2461 3.90234C23.5169 4.24089 22.8919 4.76823 22.3711 5.48438C21.8503 6.20052 21.4466 7.125 21.1602 8.25781C20.8867 9.3776 20.75 10.7188 20.75 12.2812V17.2617C20.75 18.8372 20.8867 20.1914 21.1602 21.3242C21.4466 22.444 21.8503 23.3685 22.3711 24.0977C22.9049 24.8138 23.543 25.3477 24.2852 25.6992C25.0273 26.0378 25.8542 26.207 26.7656 26.207C27.7422 26.207 28.6016 26.0378 29.3438 25.6992C30.099 25.3477 30.724 24.8138 31.2188 24.0977C31.7266 23.3685 32.1042 22.444 32.3516 21.3242C32.612 20.1914 32.7422 18.8372 32.7422 17.2617ZM59.6758 14.8398V25.4453C59.3633 25.862 58.888 26.3828 58.25 27.0078C57.625 27.6328 56.7461 28.1862 55.6133 28.668C54.4805 29.1497 52.9961 29.3906 51.1602 29.3906C49.6888 29.3906 48.3411 29.1432 47.1172 28.6484C45.9062 28.1536 44.8581 27.4115 43.9727 26.4219C43.1003 25.4193 42.4232 24.1758 41.9414 22.6914C41.4596 21.194 41.2188 19.4427 41.2188 17.4375V12.1055C41.2188 10.1133 41.4206 8.36849 41.8242 6.87109C42.2279 5.3737 42.8268 4.13021 43.6211 3.14062C44.4284 2.15104 45.4245 1.40885 46.6094 0.914062C47.8073 0.419271 49.2005 0.171875 50.7891 0.171875C52.625 0.171875 54.1875 0.516927 55.4766 1.20703C56.7656 1.89714 57.7617 2.89323 58.4648 4.19531C59.181 5.4974 59.5846 7.0599 59.6758 8.88281H56.082C55.9909 7.71094 55.7435 6.70833 55.3398 5.875C54.9362 5.02865 54.3633 4.38411 53.6211 3.94141C52.8789 3.48568 51.9349 3.25781 50.7891 3.25781C49.6953 3.25781 48.7708 3.4401 48.0156 3.80469C47.2604 4.16927 46.6419 4.71615 46.1602 5.44531C45.6914 6.17448 45.3464 7.09245 45.125 8.19922C44.9167 9.30599 44.8125 10.5951 44.8125 12.0664V17.4375C44.8125 18.9479 44.9622 20.263 45.2617 21.3828C45.5612 22.5026 45.9844 23.4271 46.5312 24.1562C47.0911 24.8854 47.7617 25.4323 48.543 25.7969C49.3242 26.1484 50.2031 26.3242 51.1797 26.3242C52.2865 26.3242 53.1589 26.207 53.7969 25.9727C54.4349 25.7383 54.9232 25.4714 55.2617 25.1719C55.6133 24.8724 55.8932 24.6315 56.1016 24.4492V17.8867H50.8867V14.8398H59.6758ZM83.9922 12.3203V17.2617C83.9922 19.2669 83.7708 21.0312 83.3281 22.5547C82.8984 24.0651 82.2669 25.3281 81.4336 26.3438C80.6003 27.3594 79.5977 28.1211 78.4258 28.6289C77.2539 29.1367 75.9323 29.3906 74.4609 29.3906C73.0417 29.3906 71.7461 29.1367 70.5742 28.6289C69.4023 28.1211 68.3932 27.3594 67.5469 26.3438C66.7005 25.3281 66.043 24.0651 65.5742 22.5547C65.1185 21.0312 64.8906 19.2669 64.8906 17.2617V12.3203C64.8906 10.3151 65.1185 8.55729 65.5742 7.04688C66.0299 5.52344 66.681 4.25391 67.5273 3.23828C68.3737 2.22266 69.3828 1.46094 70.5547 0.953125C71.7266 0.432292 73.0221 0.171875 74.4414 0.171875C75.9128 0.171875 77.2344 0.432292 78.4062 0.953125C79.5911 1.46094 80.5938 2.22266 81.4141 3.23828C82.2474 4.25391 82.8854 5.52344 83.3281 7.04688C83.7708 8.55729 83.9922 10.3151 83.9922 12.3203ZM80.4375 17.2617V12.2812C80.4375 10.7188 80.3073 9.3776 80.0469 8.25781C79.7865 7.125 79.4023 6.20052 78.8945 5.48438C78.3867 4.76823 77.7617 4.24089 77.0195 3.90234C76.2773 3.55078 75.418 3.375 74.4414 3.375C73.5169 3.375 72.6836 3.55078 71.9414 3.90234C71.2122 4.24089 70.5872 4.76823 70.0664 5.48438C69.5456 6.20052 69.1419 7.125 68.8555 8.25781C68.582 9.3776 68.4453 10.7188 68.4453 12.2812V17.2617C68.4453 18.8372 68.582 20.1914 68.8555 21.3242C69.1419 22.444 69.5456 23.3685 70.0664 24.0977C70.6003 24.8138 71.2383 25.3477 71.9805 25.6992C72.7227 26.0378 73.5495 26.207 74.4609 26.207C75.4375 26.207 76.2969 26.0378 77.0391 25.6992C77.7943 25.3477 78.4193 24.8138 78.9141 24.0977C79.4219 23.3685 79.7995 22.444 80.0469 21.3242C80.3073 20.1914 80.4375 18.8372 80.4375 17.2617ZM111.18 21.8125C111.18 21.1484 111.102 20.5625 110.945 20.0547C110.789 19.5339 110.516 19.0651 110.125 18.6484C109.734 18.2318 109.188 17.8346 108.484 17.457C107.781 17.0794 106.889 16.6953 105.809 16.3047C104.637 15.888 103.576 15.4258 102.625 14.918C101.674 14.3971 100.861 13.8047 100.184 13.1406C99.5195 12.4766 99.0052 11.7148 98.6406 10.8555C98.276 9.99609 98.0938 9.01302 98.0938 7.90625C98.0938 6.79948 98.2826 5.77734 98.6602 4.83984C99.0508 3.90234 99.5977 3.08854 100.301 2.39844C101.017 1.69531 101.876 1.14844 102.879 0.757812C103.882 0.367188 105.001 0.171875 106.238 0.171875C108.087 0.171875 109.643 0.582031 110.906 1.40234C112.182 2.20964 113.146 3.27083 113.797 4.58594C114.448 5.88802 114.773 7.28125 114.773 8.76562H111.18C111.18 7.69792 111.004 6.75391 110.652 5.93359C110.314 5.10026 109.78 4.44922 109.051 3.98047C108.335 3.4987 107.397 3.25781 106.238 3.25781C105.197 3.25781 104.337 3.45964 103.66 3.86328C102.996 4.26693 102.501 4.8138 102.176 5.50391C101.863 6.19401 101.707 6.98177 101.707 7.86719C101.707 8.46615 101.811 9.01302 102.02 9.50781C102.228 9.98958 102.547 10.4388 102.977 10.8555C103.419 11.2721 103.966 11.6562 104.617 12.0078C105.281 12.3594 106.062 12.6979 106.961 13.0234C108.354 13.4792 109.546 13.987 110.535 14.5469C111.525 15.1068 112.332 15.7383 112.957 16.4414C113.582 17.1315 114.038 17.9193 114.324 18.8047C114.624 19.6771 114.773 20.6667 114.773 21.7734C114.773 22.9323 114.578 23.9805 114.188 24.918C113.81 25.8555 113.257 26.6562 112.527 27.3203C111.798 27.9844 110.919 28.4987 109.891 28.8633C108.862 29.2148 107.703 29.3906 106.414 29.3906C105.294 29.3906 104.194 29.2083 103.113 28.8438C102.046 28.4792 101.076 27.9323 100.203 27.2031C99.3307 26.474 98.6341 25.5755 98.1133 24.5078C97.5924 23.4271 97.332 22.1771 97.332 20.7578H100.926C100.926 21.7344 101.069 22.5742 101.355 23.2773C101.642 23.9674 102.039 24.5404 102.547 24.9961C103.055 25.4518 103.634 25.7904 104.285 26.0117C104.949 26.2201 105.659 26.3242 106.414 26.3242C107.456 26.3242 108.328 26.1419 109.031 25.7773C109.747 25.4128 110.281 24.8919 110.633 24.2148C110.997 23.5378 111.18 22.737 111.18 21.8125ZM123.23 0.5625V29H119.637V0.5625H123.23ZM138.035 0.5625V29H134.48V0.5625H138.035ZM145.516 0.5625V3.64844H127.02V0.5625H145.516ZM165.008 25.9336V29H152.664V25.9336H165.008ZM153.309 0.5625V29H149.715V0.5625H153.309ZM163.348 12.7891V15.8555H152.664V12.7891H163.348ZM164.812 0.5625V3.64844H152.664V0.5625H164.812Z" fill="white"/>
</svg>
